<svg xmlns="http://www.w3.org/2000/svg" viewBox="0 0 95.47 95.47">
  <path d="M59.84 20.09L40.34 13.19L40.34 13.29Q22.94 26.09 22.94 37.29Q14.54 40.79 14.54 47.89Q14.54 52.99 18.34 55.39Q23.14 58.69 28.64 58.79Q29.64 58.89 30.64 58.79L37.44 58.79L33.94 64.99Q29.84 64.39 25.84 64.39Q20.84 64.39 17.14 66.79Q12.54 69.49 12.64 74.09Q12.74 80.99 22.24 82.19Q22.84 82.19 23.34 82.29L24.54 82.29Q32.94 82.29 44.84 76.29Q45.64 76.79 46.69 77.24Q47.74 77.69 48.94 78.19Q51.34 79.69 55.74 80.79Q67.44 74.99 73.44 69.79Q82.84 61.69 82.84 52.29Q82.84 42.69 73.44 38.09Q67.44 35.19 57.84 35.19L54.54 35.19Q54.44 35.29 54.14 35.29Q53.84 35.29 53.74 35.19L64.64 15.99L62.84 14.79L59.84 20.09M41.84 75.29L41.84 75.39Q32.34 80.29 23.04 80.29Q22.64 80.29 22.34 80.19L21.64 80.19Q17.14 79.49 17.14 76.09Q17.14 74.19 18.64 73.29Q20.94 71.89 24.24 71.89Q31.74 71.89 41.84 75.29M45.14 49.89L48.74 43.69Q51.34 43.49 53.99 43.39Q56.64 43.29 59.24 43.29Q65.84 43.29 70.54 46.49Q76.04 50.19 76.04 56.49Q76.04 65.49 64.44 73.59Q64.14 73.69 63.84 73.99Q63.04 73.59 62.14 73.24Q61.24 72.89 60.34 72.49L56.74 71.09L59.14 69.79Q60.64 68.89 61.74 68.29Q70.74 62.89 70.74 57.09Q70.74 51.09 62.34 49.29Q60.64 48.89 58.04 48.89Q56.84 48.89 53.74 49.19Q53.34 49.19 52.64 49.29Q51.94 49.39 51.54 49.39Q49.64 49.79 48.04 49.89Q46.44 49.99 45.14 49.89M44.94 67.49L36.34 65.29L40.14 58.79Q41.14 58.79 41.74 58.49L52.04 57.39Q54.84 57.09 57.04 57.09Q59.04 57.09 60.54 57.99Q62.44 59.19 62.44 60.99Q62.44 62.99 60.74 64.69Q58.24 66.59 56.44 67.89Q54.64 69.19 53.34 69.99Q51.24 69.29 49.14 68.64Q47.04 67.99 44.94 67.49M46.14 43.89L42.54 50.29L39.54 50.49Q38.04 50.59 36.54 50.64Q35.04 50.69 33.44 50.69L30.44 50.69Q26.74 50.69 23.94 49.19Q20.54 47.29 20.54 43.89Q20.54 41.19 23.24 39.19Q24.64 42.79 27.64 43.89Q30.04 44.69 34.34 44.69Q37.24 44.69 40.19 44.49Q43.14 44.29 46.14 43.89M55.54 27.49L50.94 35.49Q48.54 35.79 46.74 35.99Q44.94 36.19 43.74 36.29L41.24 36.29Q40.44 36.39 39.84 36.39Q39.24 36.39 38.84 36.39L38.24 36.39L37.64 36.39Q29.14 35.99 29.14 29.59Q29.14 26.49 31.49 24.29Q33.84 22.09 37.04 21.79L37.84 21.79Q44.54 21.79 55.54 27.49" fill="#000"/>
</svg>
